<svg width="16" height="16" viewBox="0 0 16 16" fill="none" xmlns="http://www.w3.org/2000/svg">
<g clip-path="url(#clip0_1_3)">
<g filter="url(#filter0_d_1_3)">
<path d="M7.48876 1C4.06822 1 1.26611 3.63291 1 6.97861L4.48987 8.41904C4.7855 8.21697 5.14297 8.09925 5.52714 8.09925C5.56181 8.09925 5.59601 8.10018 5.62974 8.10203L7.18189 5.85611V5.8246C7.18189 4.47315 8.28334 3.37337 9.63731 3.37337C10.9913 3.37337 12.0927 4.47315 12.0927 5.8246C12.0927 7.17604 10.9913 8.27629 9.63731 8.27629C9.61857 8.27629 9.6003 8.27583 9.58156 8.27536L7.36788 9.85159C7.36929 9.88078 7.37022 9.90998 7.37022 9.93872C7.37022 10.9537 6.54332 11.7791 5.52714 11.7791C4.63511 11.7791 3.88878 11.1432 3.72012 10.3016L1.22394 9.27134C1.99697 11.9997 4.50814 14 7.48876 14C11.085 14 14 11.0895 14 7.5C14 3.91005 11.085 1 7.48876 1ZM5.08037 10.8627L4.28064 10.5327C4.42213 10.8274 4.66762 11.074 4.99323 11.2093C5.69692 11.5022 6.50837 11.169 6.80165 10.4659C6.94361 10.1258 6.94454 9.75037 6.80399 9.40926C6.66344 9.06816 6.3978 8.80213 6.0572 8.66031C5.71847 8.51989 5.35585 8.52498 5.03727 8.64502L5.86371 8.98612C6.38281 9.2021 6.6283 9.79718 6.41186 10.3153C6.19588 10.8335 5.59947 11.0786 5.08037 10.8627ZM11.2735 5.82465C11.2735 4.92415 10.5394 4.19096 9.63749 4.19096C8.73516 4.19096 8.00102 4.92415 8.00102 5.82465C8.00102 6.72514 8.73516 7.45787 9.63749 7.45787C10.5394 7.45787 11.2735 6.72514 11.2735 5.82465ZM8.41096 5.82186C8.41096 5.14429 8.96145 4.59509 9.63984 4.59509C10.3187 4.59509 10.8692 5.14429 10.8692 5.82186C10.8692 6.49944 10.3187 7.04864 9.63984 7.04864C8.96145 7.04864 8.41096 6.49944 8.41096 5.82186Z" fill="#1A1918"/>
</g>
<path d="M11.456 14.52V14H10.325V11.257H11.417V12.726C11.417 12.7693 11.4387 12.791 11.482 12.791H12.639C12.6823 12.791 12.704 12.7693 12.704 12.726L12.717 10.516C12.717 10.4727 12.6953 10.451 12.652 10.451H11.339C10.9923 10.451 10.7237 10.3427 10.533 10.126C10.351 9.90933 10.26 9.61467 10.26 9.242V7.409C10.26 7.05367 10.3727 6.76333 10.598 6.538C10.832 6.31267 11.1267 6.2 11.482 6.2H11.521V5.68H12.73V6.2H13.861V8.54H12.769V7.474C12.769 7.43067 12.7473 7.409 12.704 7.409H11.547C11.5037 7.409 11.482 7.43067 11.482 7.474V9.177C11.482 9.22033 11.5037 9.242 11.547 9.242H12.704C13.0853 9.242 13.3843 9.35467 13.601 9.58C13.8177 9.79667 13.926 10.087 13.926 10.451V12.791C13.926 13.1377 13.809 13.428 13.575 13.662C13.3497 13.8873 13.0593 14 12.704 14H12.665V14.52H11.456Z" fill="#4CAE2A"/>
</g>
<defs>
<filter id="filter0_d_1_3" x="-1" y="-1" width="17" height="17" filterUnits="userSpaceOnUse" color-interpolation-filters="sRGB">
<feFlood flood-opacity="0" result="BackgroundImageFix"/>
<feColorMatrix in="SourceAlpha" type="matrix" values="0 0 0 0 0 0 0 0 0 0 0 0 0 0 0 0 0 0 127 0" result="hardAlpha"/>
<feOffset/>
<feGaussianBlur stdDeviation="1"/>
<feComposite in2="hardAlpha" operator="out"/>
<feColorMatrix type="matrix" values="0 0 0 0 1 0 0 0 0 1 0 0 0 0 1 0 0 0 1 0"/>
<feBlend mode="normal" in2="BackgroundImageFix" result="effect1_dropShadow_1_3"/>
<feBlend mode="normal" in="SourceGraphic" in2="effect1_dropShadow_1_3" result="shape"/>
</filter>
<clipPath id="clip0_1_3">
<rect width="15" height="15" fill="white"/>
</clipPath>
</defs>
</svg>
