<svg width="44" height="56" viewBox="0 0 44 56" fill="none" xmlns="http://www.w3.org/2000/svg">
<path d="M36.6901 29.5717C36.6511 27.4663 37.1718 25.3914 38.1939 23.5806C39.216 21.7697 40.6987 20.2946 42.4751 19.3217C41.3565 17.6866 39.8956 16.3434 38.2053 15.3956C36.5146 14.4478 34.64 13.9207 32.7251 13.855C28.5976 13.5134 24.1126 16.3834 22.4551 16.3834C20.7976 16.3834 16.7026 13.9917 13.5826 13.9917C7.0826 13.9917 0.225098 19.4242 0.225098 30.255C0.256428 33.631 0.816434 36.9787 1.8826 40.1634C3.3126 44.5367 8.6751 55.5042 14.2651 55.3333C17.1901 55.3333 19.2701 53.1467 23.0726 53.1467C26.8751 53.1467 28.6626 55.3333 31.9451 55.3333C37.5676 55.3333 42.4426 45.2542 43.8401 40.7783C41.7241 39.8685 39.9138 38.3166 38.6405 36.3206C37.3668 34.3246 36.6879 31.975 36.6901 29.5717ZM30.1901 9.51585C31.1999 8.31882 31.9614 6.91369 32.4258 5.39006C32.8902 3.86643 33.0475 2.25779 32.8876 0.666687C29.8531 1.01652 27.0503 2.53851 25.0226 4.93752C23.9742 6.09888 23.1646 7.47494 22.6446 8.97985C22.1246 10.4848 21.9052 12.0862 22.0001 13.6842C23.5738 13.7307 25.1351 13.3758 26.5498 12.6499C27.9649 11.924 29.1914 10.8487 30.1251 9.51585H30.1901Z" fill="#E87C7C"/>
</svg>
