<svg width="69" height="69" viewBox="0 0 69 69" fill="none" xmlns="http://www.w3.org/2000/svg">
<g clip-path="url(#clip0_2_804)">
<path d="M34.1434 0C16.1448 0 1.40025 13.9631 0 31.7064L18.3635 39.3455C19.919 38.2738 21.8 37.6495 23.8215 37.6495C24.0039 37.6495 24.1839 37.6545 24.3614 37.6643L32.5286 25.7535V25.5863C32.5286 18.4192 38.3244 12.5867 45.4489 12.5867C52.5734 12.5867 58.3691 18.4192 58.3691 25.5863C58.3691 32.7535 52.5734 38.5884 45.4489 38.5884C45.3503 38.5884 45.2541 38.586 45.1555 38.5835L33.5073 46.9427C33.5147 47.0976 33.5197 47.2524 33.5197 47.4048C33.5197 52.7875 29.1685 57.165 23.8215 57.165C19.1277 57.165 15.2006 53.7928 14.3131 49.3293L1.17838 43.8655C5.246 58.3349 18.4596 68.943 34.1434 68.943C53.0664 68.943 68.4051 53.5077 68.4051 34.4715C68.4051 15.4329 53.0664 0 34.1434 0ZM21.4706 52.3048L17.2625 50.5548C18.007 52.118 19.2988 53.4256 21.0121 54.1433C24.7149 55.6966 28.9846 53.9294 30.5279 50.2009C31.2748 48.3968 31.2798 46.4059 30.5402 44.5969C29.8006 42.7879 28.4028 41.3771 26.6106 40.625C24.8283 39.8803 22.9202 39.9073 21.2438 40.5439L25.5925 42.3529C28.324 43.4983 29.6157 46.6542 28.4768 49.4021C27.3403 52.1499 24.2021 53.4501 21.4706 52.3048ZM54.0584 25.5866C54.0584 20.811 50.1954 16.9226 45.4499 16.9226C40.7018 16.9226 36.8388 20.811 36.8388 25.5866C36.8388 30.3622 40.7018 34.2481 45.4499 34.2481C50.1954 34.2481 54.0584 30.3622 54.0584 25.5866ZM38.9959 25.5718C38.9959 21.9785 41.8926 19.0659 45.4622 19.0659C49.0343 19.0659 51.9309 21.9785 51.9309 25.5718C51.9309 29.1652 49.0343 32.0778 45.4622 32.0778C41.8926 32.0778 38.9959 29.1652 38.9959 25.5718Z" fill="#C2C2C2"/>
</g>
<defs>
<clipPath id="clip0_2_804">
<rect width="68.4051" height="69" rx="6" fill="white"/>
</clipPath>
</defs>
</svg>
