<svg width="49" height="51" viewBox="0 0 49 51" fill="none" xmlns="http://www.w3.org/2000/svg">
<g clip-path="url(#clip0_2_870)">
<path fill-rule="evenodd" clip-rule="evenodd" d="M22.4074 26.6069C22.4196 31.7041 22.4344 40.3645 22.4467 47.0953C31.3011 48.3416 40.1554 49.6263 48.9951 51C48.9951 42.9643 49.0049 34.9637 48.9951 27.3179C40.1333 27.3179 31.274 26.6069 22.4074 26.6069ZM0 26.6094V43.9153C6.67825 44.8532 13.3565 45.7495 20.0225 46.7741C20.0347 40.0789 20.0175 33.3818 20.0175 26.6866C13.3442 26.6993 6.67333 26.5865 0 26.6094ZM0 7.25032V24.5076C6.67825 24.5255 13.3565 24.4203 20.0347 24.428C20.0298 17.7481 20.0298 11.0764 20.0225 4.39651C13.3393 5.26557 6.65614 6.185 0 7.25032ZM49 24.1528C40.1505 24.1885 31.3011 24.3289 22.4467 24.357C22.4418 17.5675 22.4418 10.7862 22.4467 4.00181C31.2839 2.59752 40.1407 1.27684 48.9951 0C49 8.05356 48.9951 16.0992 49 24.1528Z" fill="#7FDA83"/>
</g>
<defs>
<clipPath id="clip0_2_870">
<rect width="49" height="51" fill="white"/>
</clipPath>
</defs>
</svg>
